<svg xmlns="http://www.w3.org/2000/svg" xmlns:xlink="http://www.w3.org/1999/xlink" width="196" height="84" viewBox="0 0 196 84">
    <defs>
        <path id="b" d="M4 4.007A4 4 0 0 1 7.998 0h164.004A4.004 4.004 0 0 1 176 4.007v51.986A4 4 0 0 1 172.002 60H7.998A4.004 4.004 0 0 1 4 55.993V4.007z"/>
        <filter id="a" width="123.3%" height="166.7%" x="-11.6%" y="-26.7%" filterUnits="objectBoundingBox">
            <feOffset dy="4" in="SourceAlpha" result="shadowOffsetOuter1"/>
            <feGaussianBlur in="shadowOffsetOuter1" result="shadowBlurOuter1" stdDeviation="6"/>
            <feColorMatrix in="shadowBlurOuter1" values="0 0 0 0 0 0 0 0 0 0 0 0 0 0 0 0 0 0 0.2 0"/>
        </filter>
    </defs>
    <g fill="none" fill-rule="evenodd" transform="translate(8 8)">
        <use fill="#000" filter="url(#a)" xlink:href="#b"/>
        <rect width="180" height="60" fill="#000" rx="2"/>
        <text fill="#FFF" font-family="Roboto, Verdana" font-size="17" font-weight="400">
            <tspan x="61" y="37">App Store</tspan>
        </text>
        <path fill="#FFF" d="M45.11 20.835c.86-1.015 1.437-2.426 1.28-3.835-1.235.047-2.737.807-3.62 1.818-.793.901-1.488 2.336-1.304 3.713 1.379.105 2.787-.683 3.643-1.696m6.391 13.77c-.03.081-.517 1.722-1.703 3.41-1.02 1.464-2.085 2.923-3.76 2.952-1.642.031-2.17-.952-4.051-.952-1.88 0-2.467.923-4.023.983-1.618.062-2.844-1.58-3.878-3.037-2.112-2.98-3.72-8.422-1.56-12.092 1.078-1.824 2.997-2.977 5.083-3.008 1.59-.026 3.085 1.042 4.055 1.042.97 0 2.787-1.291 4.702-1.102.797.036 3.046.316 4.493 2.381-.12.074-2.685 1.53-2.657 4.568.032 3.631 3.261 4.84 3.299 4.854"/>
    </g>
</svg>
