<?xml version="1.0" encoding="UTF-8"?>
<svg width="80px" height="52px" viewBox="0 0 80 52" version="1.1" xmlns="http://www.w3.org/2000/svg" xmlns:xlink="http://www.w3.org/1999/xlink">
    <title>Apple_Pay_Mark_RGB_041619</title>
    <g id="Hjemmeside" stroke="none" stroke-width="1" fill="none" fill-rule="evenodd">
        <g id="Full-page-2" transform="translate(-337.000000, -1073.000000)" fill-rule="nonzero">
            <g id="Apple_Pay_Mark_RGB_041619" transform="translate(337.000000, 1073.000000)">
                <path d="M72.6255759,0 L7.1437012,0 C6.87097831,0 6.59777349,0 6.32553735,0.00159036145 C6.09541205,0.00322891566 5.86582169,0.00578313253 5.63623133,0.0120481928 C5.13550843,0.0255903614 4.63049639,0.0551325301 4.13603855,0.144 C3.63367711,0.234409639 3.16620723,0.381879518 2.71015904,0.614072289 C2.26182169,0.842072289 1.85136386,1.14028916 1.49565783,1.49614458 C1.13979759,1.852 0.841580723,2.26178313 0.613628916,2.71060241 C0.381387952,3.1666506 0.233821687,3.63426506 0.144038554,4.13701205 C0.0546939759,4.63161446 0.0249542169,5.13653012 0.011460241,5.63672289 C0.00529156627,5.86631325 0.00264578313,6.09590361 0.00114698795,6.32544578 C1.92771085e-06,6.59826506 1.92771085e-06,6.87089157 1.92771085e-06,7.14419277 L1.92771085e-06,43.9238554 C1.92771085e-06,44.1971566 1.92771085e-06,44.469306 0.00114698795,44.7426554 C0.00264578313,44.9721976 0.00529156627,45.201788 0.011460241,45.4313783 C0.0249542169,45.9311325 0.0546939759,46.4360482 0.144038554,46.930506 C0.233821687,47.4334458 0.381387952,47.9008675 0.613628916,48.3569639 C0.841580723,48.8057831 1.13979759,49.2160964 1.49565783,49.5714217 C1.85136386,49.9278554 2.26182169,50.2260241 2.71015904,50.4534458 C3.16620723,50.6862651 3.63367711,50.8337831 4.13603855,50.9241446 C4.63049639,51.0124337 5.13550843,51.042506 5.63623133,51.0560482 C5.86582169,51.061253 6.09541205,51.0643373 6.32553735,51.0653976 C6.59777349,51.0675181 6.87097831,51.0675181 7.1437012,51.0675181 L72.6255759,51.0675181 C72.8978169,51.0675181 73.1710265,51.0675181 73.4432096,51.0653976 C73.6728048,51.0643373 73.9024,51.061253 74.133041,51.0560482 C74.6327036,51.042506 75.1376193,51.0124337 75.6332867,50.9241446 C76.1349735,50.8337831 76.6025398,50.6862651 77.0586361,50.4534458 C77.5074554,50.2260241 77.9167084,49.9278554 78.273147,49.5714217 C78.6284241,49.2160964 78.9266361,48.8057831 79.1551711,48.3569639 C79.3879373,47.9008675 79.535359,47.4334458 79.6247084,46.930506 C79.714106,46.4360482 79.7431181,45.9311325 79.7566602,45.4313783 C79.7629253,45.201788 79.7660145,44.9721976 79.7670747,44.7426554 C79.7691904,44.469306 79.7691904,44.1971614 79.7691904,43.9238554 L79.7691904,7.14419277 C79.7691904,6.87089157 79.7691904,6.59826506 79.7670747,6.32544578 C79.7660145,6.09590361 79.7629253,5.86631325 79.7566602,5.63672289 C79.7431133,5.13653012 79.714106,4.63161446 79.6247084,4.13701205 C79.5353639,3.63426506 79.3879373,3.1666506 79.1551711,2.71060241 C78.9266361,2.26178313 78.6284241,1.852 78.273147,1.49614458 C77.9167084,1.14028916 77.5074554,0.842072289 77.0586361,0.614072289 C76.6025398,0.381879518 76.1349735,0.234409639 75.6332867,0.144 C75.1376241,0.0551325301 74.6327084,0.0255903614 74.133041,0.0120481928 C73.9024,0.00578313253 73.6728048,0.00322891566 73.4432096,0.00159036145 C73.1710265,0 72.8978169,0 72.6255759,0 L72.6255759,0 Z" id="XMLID_4_" fill="#000000"></path>
                <path d="M72.6255759,1.70216867 L73.4311133,1.70371084 C73.6493301,1.70525301 73.8675518,1.70761446 74.0869783,1.71359036 C74.4686699,1.72390361 74.9151663,1.74457831 75.331359,1.81918072 C75.6931422,1.88433735 75.996559,1.98342169 76.2877446,2.13166265 C76.5752145,2.27773494 76.8385928,2.46915663 77.068559,2.69879518 C77.2994024,2.9299759 77.4910699,3.19378313 77.6390699,3.48443373 C77.7864867,3.7733494 77.8849446,4.0753253 77.9497157,4.43975904 C78.0241253,4.85142169 78.0447036,5.29913253 78.0551663,5.68318072 C78.061041,5.89995181 78.0639325,6.11672289 78.0649976,6.3386506 C78.0670218,6.60703614 78.0670218,6.87527711 78.0670218,7.14419277 L78.0670218,43.9238554 C78.0670218,44.1927711 78.0670218,44.4605301 78.0649494,44.7346506 C78.0639325,44.9513735 78.0610458,45.1681446 78.0551181,45.3853012 C78.0447036,45.7687711 78.0241301,46.216241 77.9488048,46.6327711 C77.8849446,46.9921928 77.7865398,47.2942169 77.6383036,47.5845783 C77.4907325,47.874506 77.299359,48.1380241 77.0695229,48.367759 C76.8382506,48.5990843 76.5757398,48.7899277 76.284853,48.9373494 C75.995841,49.0848675 75.6929446,49.1838602 75.3347277,49.2483373 C74.910106,49.324 74.4449012,49.3448193 74.0945398,49.3543133 C73.874106,49.3592771 73.6547325,49.3622602 73.4300145,49.3633253 C73.1622024,49.3653495 72.8934361,49.3653495 72.6255807,49.3653495 L7.1437012,49.3653495 C7.14013494,49.3653495 7.13666506,49.3653495 7.1330506,49.3653495 C6.86827952,49.3653495 6.60297831,49.3653495 6.33338795,49.3632771 C6.11358072,49.3622602 5.89425542,49.3593253 5.68220723,49.354506 C5.32384578,49.3448193 4.85835181,49.3240482 4.43719518,49.2488193 C4.0758988,49.1838554 3.77300241,49.0848675 3.48018313,48.9354217 C3.19204337,48.7893012 2.9297253,48.5986506 2.69835181,48.3668916 C2.46876145,48.1376867 2.27796627,47.874988 2.13044819,47.5846265 C1.98278554,47.2945542 1.88399036,46.9916145 1.81903133,46.6279036 C1.74394217,46.2121928 1.72331566,45.766506 1.71300723,45.3856386 C1.70712289,45.1675663 1.70466506,44.9495422 1.70326747,44.7327711 L1.70220723,44.0928193 L1.70220723,43.9238554 L1.70220723,7.14419277 L1.70220723,6.97522892 L1.70321928,6.33662651 C1.70466506,6.11855422 1.70712289,5.90053012 1.71300723,5.6826506 C1.72331566,5.30139759 1.74394217,4.85551807 1.81965301,4.43633735 C1.88403855,4.07590361 1.98278554,3.77296386 2.13121928,3.48144578 C2.27758072,3.1933012 2.46871325,2.93026506 2.69951325,2.69951807 C2.92939277,2.46954217 3.19256867,2.27836145 3.48254458,2.13089157 C3.77223133,1.98337349 4.0757012,1.88433735 4.43700241,1.8193253 C4.85329157,1.74453012 5.30008675,1.72390361 5.68273735,1.71354217 C5.90085783,1.70761446 6.11897831,1.70525301 6.33546024,1.70375904 L7.1437012,1.70216867 L72.6255759,1.70216867" id="XMLID_3_" fill="#FFFFFF"></path>
                <g id="Group" transform="translate(10.602410, 13.975904)" fill="#000000">
                    <g id="Path">
                        <path d="M11.1740723,3.20025542 C11.8570795,2.34596145 12.3205639,1.19889639 12.1983229,0.0267325301 C11.1984964,0.0764481928 9.9784,0.686351807 9.2720241,1.54131566 C8.63777349,2.27346024 8.07640964,3.46855422 8.22275663,4.59158072 C9.34511325,4.68893494 10.4664337,4.03057831 11.1740723,3.20025542"></path>
                        <path d="M12.1855711,4.81085301 C10.5556386,4.71376386 9.16979759,5.73591807 8.39142169,5.73591807 C7.61261687,5.73591807 6.42066988,4.85977831 5.13147952,4.88339277 C3.45351807,4.90803855 1.89656386,5.85677108 1.04506988,7.3657012 C-0.706308434,10.3843036 0.582881928,14.861947 2.28600482,17.3204289 C3.11307952,18.5367181 4.10984578,19.8759422 5.42323855,19.8278361 C6.66417349,19.7791422 7.15056867,19.0243084 8.65897831,19.0243084 C10.1662795,19.0243084 10.6044193,19.8278361 11.9180241,19.803494 C13.2802651,19.7791373 14.1319084,18.5865976 14.9589735,17.3691229 C15.9077831,15.9826169 16.2961928,14.6438313 16.3206217,14.5703373 C16.296188,14.5459952 13.6938361,13.5476675 13.669706,10.5541542 C13.6451373,8.04764337 15.7128434,6.85540723 15.810159,6.78146988 C14.642506,5.05450602 12.8180723,4.85977831 12.1855711,4.81085301"></path>
                    </g>
                    <g transform="translate(19.277108, 0.963855)">
                        <path d="M7.1006506,0.454843373 C10.6432819,0.454843373 13.1101446,2.89681446 13.1101446,6.45213494 C13.1101446,10.0201494 10.5925205,12.4748048 7.01181687,12.4748048 L3.08944578,12.4748048 L3.08944578,18.7124819 L0.25553253,18.7124819 L0.25553253,0.454843373 L7.1006506,0.454843373 L7.1006506,0.454843373 Z M3.08944096,10.0960482 L6.34116145,10.0960482 C8.80851084,10.0960482 10.2127759,8.76768193 10.2127759,6.4648241 C10.2127759,4.16221205 8.80851084,2.84629398 6.3538506,2.84629398 L3.08944096,2.84629398 L3.08944096,10.0960482 L3.08944096,10.0960482 Z" id="Shape"></path>
                        <path d="M13.850588,14.9294651 C13.850588,12.6012241 15.6345976,11.1715807 18.7979759,10.9944 L22.4416434,10.7793928 L22.4416434,9.75462651 C22.4416434,8.27421687 21.4420145,7.38855904 19.7722217,7.38855904 C18.1902892,7.38855904 17.2033494,8.14755663 16.9632048,9.33705542 L14.3821253,9.33705542 C14.5339277,6.93291566 16.5834602,5.1616 19.8732578,5.1616 C23.0996,5.1616 25.1618217,6.86970602 25.1618217,9.53937349 L25.1618217,18.7124867 L22.5426795,18.7124867 L22.5426795,16.5236 L22.4797157,16.5236 C21.7080289,18.0040096 20.0250602,18.9401831 18.2791229,18.9401831 C15.6726651,18.9401831 13.850588,17.3206651 13.850588,14.9294651 Z M22.4416434,13.7275181 L22.4416434,12.6773735 L19.1645349,12.8796916 C17.5323277,12.9936627 16.6088434,13.7148289 16.6088434,14.8535663 C16.6088434,16.017441 17.5704,16.7766795 19.0381205,16.7766795 C20.9485446,16.7766795 22.4416434,15.4607614 22.4416434,13.7275181 Z" id="Shape"></path>
                        <path d="M27.6345398,23.6091084 L27.6345398,21.3948434 C27.836612,21.4453639 28.2920096,21.4453639 28.5199518,21.4453639 C29.7851084,21.4453639 30.4684482,20.9140627 30.8857735,19.5476289 C30.8857735,19.5222458 31.1264048,18.7378699 31.1264048,18.7251807 L26.3186169,5.40199036 L29.2789446,5.40199036 L32.6448819,16.232694 L32.6951566,16.232694 L36.0610988,5.40199036 L38.9457735,5.40199036 L33.9603133,19.4082747 C32.8220675,22.6348627 31.5061446,23.6723181 28.747894,23.6723181 C28.5199566,23.6723181 27.8366169,23.6469349 27.6345398,23.6091084 Z" id="Path"></path>
                    </g>
                </g>
            </g>
        </g>
    </g>
</svg>