<?xml version="1.0" encoding="UTF-8"?>
<svg width="30px" height="44px" viewBox="0 0 30 44" version="1.1" xmlns="http://www.w3.org/2000/svg" xmlns:xlink="http://www.w3.org/1999/xlink">
    <!-- Generator: Sketch 48.2 (47327) - http://www.bohemiancoding.com/sketch -->
    <title>flash</title>
    <desc>Created with Sketch.</desc>
    <defs></defs>
    <g id="Full-page-2" stroke="none" stroke-width="1" fill="none" fill-rule="evenodd" transform="translate(-788.000000, -1215.000000)">
        <g id="features" transform="translate(249.500000, 1181.000000)" fill="#FFFFFF">
            <g id="contacts" transform="translate(396.000000, 0.000000)">
                <g id="icon" transform="translate(102.000000, 0.000000)">
                    <path d="M69.6338943,56.1106039 L57.0180662,34.332162 C56.6721777,33.7317406 55.6243985,34.0056171 55.7174445,34.6727519 L57.7846846,49.5674155 C57.9363901,50.6594099 56.9533385,51.6214886 55.6871034,51.6214886 L44.3981926,51.6214886 C41.8717906,51.6214886 40.2313486,53.9318819 41.3661057,55.8893961 L53.9819338,77.667838 C54.329845,78.2682594 55.3756015,77.9943829 55.2825555,77.3272481 L53.2153154,62.4325845 C53.0656327,61.3405901 54.0466615,60.380267 55.3128966,60.380267 L66.6018074,60.380267 C69.1282094,60.380267 70.7686514,58.0698737 69.6338943,56.1106039" id="flash"></path>
                </g>
            </g>
        </g>
    </g>
</svg>