<?xml version="1.0" encoding="UTF-8"?>
<svg width="95px" height="50px" viewBox="0 0 95 50" version="1.1" xmlns="http://www.w3.org/2000/svg" xmlns:xlink="http://www.w3.org/1999/xlink">
    <title>google-pay-mark_800</title>
    <g id="Hjemmeside" stroke="none" stroke-width="1" fill="none" fill-rule="evenodd">
        <g id="Full-page-2" transform="translate(-429.000000, -1073.000000)" fill-rule="nonzero">
            <g id="google-pay-mark_800" transform="translate(429.000000, 1073.000000)">
                <path d="M69.7340426,0 L25.2659574,0 C11.3696809,0 0,11.25 0,25 L0,25 C0,38.75 11.3696809,50 25.2659574,50 L69.7340426,50 C83.6303191,50 95,38.75 95,25 L95,25 C95,11.25 83.6303191,0 69.7340426,0 Z" id="Base_1_" fill="#FFFFFF"></path>
                <path d="M69.7340426,2.025 C72.8543883,2.025 75.8863032,2.6375 78.7413564,3.8375 C81.5079787,5 83.9840426,6.6625 86.1316489,8.775 C88.2666223,10.8875 89.9468085,13.35 91.1216755,16.0875 C92.3344415,18.9125 92.9534574,21.9125 92.9534574,25 C92.9534574,28.0875 92.3344415,31.0875 91.1216755,33.9125 C89.9468085,36.65 88.2666223,39.1 86.1316489,41.225 C83.9966755,43.3375 81.5079787,45 78.7413564,46.1625 C75.8863032,47.3625 72.8543883,47.975 69.7340426,47.975 L25.2659574,47.975 C22.1456117,47.975 19.1136968,47.3625 16.2586436,46.1625 C13.4920213,45 11.0159574,43.3375 8.86835106,41.225 C6.73337766,39.1125 5.05319149,36.65 3.87832447,33.9125 C2.66555851,31.0875 2.04654255,28.0875 2.04654255,25 C2.04654255,21.9125 2.66555851,18.9125 3.87832447,16.0875 C5.05319149,13.35 6.73337766,10.9 8.86835106,8.775 C11.0033245,6.6625 13.4920213,5 16.2586436,3.8375 C19.1136968,2.6375 22.1456117,2.025 25.2659574,2.025 L69.7340426,2.025 M69.7340426,0 L25.2659574,0 C11.3696809,0 0,11.25 0,25 L0,25 C0,38.75 11.3696809,50 25.2659574,50 L69.7340426,50 C83.6303191,50 95,38.75 95,25 L95,25 C95,11.25 83.6303191,0 69.7340426,0 L69.7340426,0 Z" id="Outline" fill="#3C4043"></path>
                <g id="G_Pay_Lockup_1_" transform="translate(15.000000, 14.000000)">
                    <g id="Pay_Typeface_3_" transform="translate(28.223421, 1.397731)" fill="#3C4043">
                        <path d="M2.42094235,11.3343305 L2.42094235,19.0218528 L0.0125437427,19.0218528 L0.0125437427,0.0381199455 L6.3973088,0.0381199455 C8.01545161,0.0381199455 9.39526331,0.58450583 10.5242002,1.6772776 C11.6782245,2.77004937 12.2552367,4.10424746 12.2552367,5.67987187 C12.2552367,7.29361623 11.6782245,8.62781432 10.5242002,9.70787945 C9.40780705,10.7879446 8.02799535,11.3216238 6.3973088,11.3216238 L2.42094235,11.3216238 L2.42094235,11.3343305 Z M2.42094235,2.37614327 L2.42094235,8.99630713 L6.44748377,8.99630713 C7.40080822,8.99630713 8.20360775,8.66593427 8.83079489,8.0178952 C9.47052577,7.36985612 9.79666308,6.58204392 9.79666308,5.69257852 C9.79666308,4.81581978 9.47052577,4.04071422 8.83079489,3.39267515 C8.20360775,2.71922278 7.41335196,2.38884992 6.44748377,2.38884992 L2.42094235,2.38884992 L2.42094235,2.37614327 Z" id="Letter_p_3_"></path>
                        <path d="M18.5521955,5.60363198 C20.333407,5.60363198 21.7383062,6.08648463 22.7668931,7.05218991 C23.79548,8.0178952 24.3097734,9.33938664 24.3097734,11.0166642 L24.3097734,19.0218528 L22.0142685,19.0218528 L22.0142685,17.2175087 L21.9139186,17.2175087 C20.9229629,18.7041866 19.5933262,19.4411722 17.9375521,19.4411722 C16.5201092,19.4411722 15.3409974,19.0218528 14.3876729,18.1705073 C13.4343485,17.3191619 12.9576862,16.2645101 12.9576862,14.9938452 C12.9576862,13.6469405 13.459436,12.579582 14.4629354,11.7917698 C15.4664348,10.9912509 16.8086153,10.5973448 18.4769331,10.5973448 C19.9069197,10.5973448 21.0860315,10.8641845 22.0017248,11.3978637 L22.0017248,10.8387712 C22.0017248,9.98742571 21.6755875,9.2758534 21.0107691,8.67864092 C20.3459507,8.08142844 19.5682387,7.78917552 18.6776329,7.78917552 C17.3354525,7.78917552 16.2692343,8.36097471 15.4915223,9.51727972 L13.3716298,8.17037498 C14.5381978,6.45497743 16.2692343,5.60363198 18.5521955,5.60363198 Z M15.4413473,15.0319652 C15.4413473,15.6672976 15.7047659,16.2009768 16.2441468,16.6202962 C16.770984,17.0396156 17.3981712,17.2556286 18.1131645,17.2556286 C19.1292077,17.2556286 20.0323572,16.8744292 20.8226129,16.1120303 C21.6128687,15.3496314 22.0142685,14.460166 22.0142685,13.4309275 C21.2616439,12.833715 20.2205133,12.5287554 18.8783328,12.5287554 C17.8999209,12.5287554 17.0845776,12.7701817 16.432303,13.2403277 C15.7674846,13.735887 15.4413473,14.3330995 15.4413473,15.0319652 Z" id="Letter_a_3_"></path>
                        <polygon id="Letter_y_3_" points="37.4054408 6.02295138 29.3774455 24.727138 26.8937844 24.727138 29.8791952 18.183214 24.5857358 6.02295138 27.207378 6.02295138 31.0206758 15.3496314 31.0708508 15.3496314 34.7837986 6.02295138"></polygon>
                    </g>
                    <g id="G_Mark_1_">
                        <path d="M21.0647072,11.1818507 C21.0647072,10.3864145 20.9944622,9.62528623 20.8640073,8.89338328 L10.7688031,8.89338328 L10.7688031,13.0865773 L16.5828279,13.0878479 C16.3470055,14.4830379 15.5881091,15.6723802 14.4253042,16.4652751 L14.4253042,19.1857686 L17.8861228,19.1857686 C19.9069197,17.2912073 21.0647072,14.4906619 21.0647072,11.1818507 Z" id="Blue_500" fill="#4285F4"></path>
                        <path d="M14.4265585,16.4652751 C13.4631991,17.1234795 12.2226229,17.508491 10.7713119,17.508491 C7.96778539,17.508491 5.58949176,15.5948697 4.73777163,13.01542 L1.16782245,13.01542 L1.16782245,15.821048 C2.93649018,19.3763683 6.57166682,21.8160448 10.7713119,21.8160448 C13.673934,21.8160448 16.1124375,20.8490688 17.8873771,19.1844979 L14.4265585,16.4652751 Z" id="Green_500_1_" fill="#34A853"></path>
                        <path d="M4.40159933,10.934071 C4.40159933,10.2097921 4.52076488,9.50965573 4.73777163,8.85145134 L4.73777163,6.04582335 L1.16782245,6.04582335 C0.436522247,7.51598258 0.0250874855,9.17547087 0.0250874855,10.934071 C0.0250874855,12.6926712 0.437776622,14.3521595 1.16782245,15.8223187 L4.73777163,13.0166907 C4.52076488,12.3584863 4.40159933,11.65835 4.40159933,10.934071 Z" id="Yellow_500_1_" fill="#FABB05"></path>
                        <path d="M10.7713119,4.35838043 C12.3555866,4.35838043 13.7742839,4.91111964 14.8944401,5.99118476 L17.9613852,2.88695054 C16.0986394,1.12962105 13.6701708,0.050826594 10.7713119,0.050826594 C6.5729212,0.050826594 2.93649018,2.4905031 1.16782245,6.04582335 L4.73777163,8.85145134 C5.58949176,6.27200169 7.96778539,4.35838043 10.7713119,4.35838043 Z" id="Red_500" fill="#E94235"></path>
                    </g>
                </g>
            </g>
        </g>
    </g>
</svg>