<?xml version="1.0" encoding="UTF-8"?>
<svg width="57px" height="57px" viewBox="0 0 57 57" version="1.1" xmlns="http://www.w3.org/2000/svg" xmlns:xlink="http://www.w3.org/1999/xlink">
    <!-- Generator: Sketch 48.2 (47327) - http://www.bohemiancoding.com/sketch -->
    <title>Mobile</title>
    <desc>Created with Sketch.</desc>
    <defs>
        <path d="M17.3494269,56.1427454 C10.9821872,56.1427454 7.32145815,56.1427454 3.66072907,52.4820163 C-2.18268768e-08,48.8212873 0,45.1605582 0,38.7933185 L0,17.3494269 C0,10.9821872 -2.18268768e-08,7.32145813 3.66072907,3.66072907 C7.32145815,0 10.9821872,0 17.3494269,0 L38.7933185,0 C45.1605582,0 48.8212873,0 52.4820163,3.66072907 C56.1427454,7.32145813 56.1427454,10.9821872 56.1427454,17.3494269 L56.1427454,38.7933185 C56.1427454,45.1605582 56.1427454,48.8212873 52.4820163,52.4820163 C48.8212873,56.1427454 45.1605582,56.1427454 38.7933185,56.1427454 L17.3494269,56.1427454 Z" id="path-1"></path>
    </defs>
    <g id="Hjemmeside" stroke="none" stroke-width="1" fill="none" fill-rule="evenodd">
        <g id="Mobile">
            <g id="Logo">
                <g id="mask">
                    <use fill="#003F63" fill-rule="evenodd" xlink:href="#path-1"></use>
                    <path stroke="#4587D4" stroke-width="5.2734375" d="M17.3494269,53.5060267 L38.7933185,53.5060267 C46.3247899,53.5060267 48.1046793,53.13047 50.6175747,50.6175746 C53.13047,48.1046793 53.5060267,46.3247899 53.5060267,38.7933185 L53.5060267,17.3494268 C53.5060267,9.81795548 53.13047,8.03806613 50.6175746,5.52517078 C48.1046793,3.01227541 46.3247899,2.63671875 38.7933185,2.63671875 L17.3494269,2.63671875 C9.81795552,2.63671875 8.03806616,3.01227541 5.52517077,5.52517079 C3.01227541,8.03806613 2.63671875,9.81795548 2.63671875,17.3494269 L2.63671875,38.7933186 C2.63671875,46.3247899 3.01227541,48.1046793 5.52517078,50.6175746 C8.03806616,53.13047 9.81795552,53.5060267 17.3494269,53.5060267 Z"></path>
                </g>
                <path d="M25.5490363,33.4077002 L25.5490363,44.479476 L17.6822483,44.479476 L17.6822483,11.8468737 L30.7039117,11.8468737 C33.1991827,11.8468737 35.406792,12.3063254 37.3268059,13.2252426 C39.2468198,14.1441597 40.7335009,15.4515426 41.7868937,17.1474303 C42.8402866,18.8433181 43.3669751,20.7670386 43.3669751,22.9186495 C43.3669751,26.1012406 42.2276843,28.6450341 39.9490686,30.5501063 C37.6704529,32.4551784 34.5439402,33.4077002 30.5694367,33.4077002 L25.5490363,33.4077002 Z M25.5490363,27.3339123 L30.7039117,27.3339123 C32.2279694,27.3339123 33.3896725,26.9529036 34.1890557,26.1908747 C34.9884389,25.4288459 35.3881245,24.3530565 35.3881245,22.9634745 C35.3881245,21.4394168 34.9772328,20.221683 34.1554369,19.3102367 C33.3336411,18.3987904 32.2130272,17.9356034 30.7935617,17.9206616 L25.5490363,17.9206616 L25.5490363,27.3339123 Z" id="P" fill="#FFFFFF"></path>
            </g>
        </g>
    </g>
</svg>