<svg xmlns="http://www.w3.org/2000/svg" xmlns:xlink="http://www.w3.org/1999/xlink" width="196" height="84" viewBox="0 0 196 84">
    <defs>
        <path id="b" d="M4 4.007A4 4 0 0 1 7.998 0h164.004A4.004 4.004 0 0 1 176 4.007v51.986A4 4 0 0 1 172.002 60H7.998A4.004 4.004 0 0 1 4 55.993V4.007z"/>
        <filter id="a" width="123.3%" height="166.7%" x="-11.6%" y="-26.7%" filterUnits="objectBoundingBox">
            <feOffset dy="4" in="SourceAlpha" result="shadowOffsetOuter1"/>
            <feGaussianBlur in="shadowOffsetOuter1" result="shadowBlurOuter1" stdDeviation="6"/>
            <feColorMatrix in="shadowBlurOuter1" values="0 0 0 0 0 0 0 0 0 0 0 0 0 0 0 0 0 0 0.2 0"/>
        </filter>
        <linearGradient id="d" x1="100%" x2="61.087%" y1="50%" y2="50%">
            <stop offset="0%" stop-color="#FBDA09"/>
            <stop offset="100%" stop-color="#FFBC00"/>
        </linearGradient>
        <path id="c" d="M20.21 10.638c1.227.724 1.228 1.897 0 2.62L2.845 23.504c-1.226.724-2.22.12-2.22-1.34V1.735c0-1.464.993-2.065 2.22-1.34"/>
        <linearGradient id="e" x1="0%" x2="69.306%" y1="58.476%" y2="39.083%">
            <stop offset="0%" stop-color="#01E2FF"/>
            <stop offset="100%" stop-color="#01C4FF"/>
        </linearGradient>
        <linearGradient id="g" x1="20.281%" x2="83.82%" y1="20.102%" y2="83.621%">
            <stop offset="0%" stop-color="#28D781"/>
            <stop offset="100%" stop-color="#02F076"/>
        </linearGradient>
        <linearGradient id="h" x1="74.488%" x2="10.108%" y1="17.43%" y2="91.184%">
            <stop offset="0%" stop-color="#F2414E"/>
            <stop offset="100%" stop-color="#E02554"/>
        </linearGradient>
    </defs>
    <g fill="none" fill-rule="evenodd" opacity=".505" transform="translate(8 8)">
        <use fill="#000" filter="url(#a)" xlink:href="#b"/>
        <rect width="180" height="60" fill="#000" rx="2"/>
        <text fill="#FFF" font-family="Roboto, Verdana" font-size="17" font-weight="400">
            <tspan x="55.5" y="37">Google Play</tspan>
        </text>
        <g transform="translate(25 18)">
            <mask id="f" fill="#fff">
                <use xlink:href="#c"/>
            </mask>
            <use fill="url(#d)" xlink:href="#c"/>
            <path fill="url(#e)" d="M.624.192L12 11.986.624 23.906z" mask="url(#f)"/>
            <path fill="url(#g)" d="M-1.767-2.3l13.775 14.302 3.98-4.233z" mask="url(#f)"/>
            <path fill="url(#h)" d="M12.011 11.994l6.104 6.263-18.512 6.498z" mask="url(#f)"/>
        </g>
    </g>
</svg>
