<?xml version="1.0" encoding="UTF-8"?>
<svg width="196px" height="84px" viewBox="0 0 196 84" version="1.1" xmlns="http://www.w3.org/2000/svg" xmlns:xlink="http://www.w3.org/1999/xlink">
    <!-- Generator: Sketch 49.3 (51167) - http://www.bohemiancoding.com/sketch -->
    <title>play store</title>
    <desc>Created with Sketch.</desc>
    <defs>
        <path d="M4,4.0065556 C4,1.79379604 5.786708,0 7.998442,0 L172.001558,0 C174.209837,0 176,1.79568082 176,4.0065556 L176,55.9934444 C176,58.206204 174.213292,60 172.001558,60 L7.998442,60 C5.79016346,60 4,58.2043192 4,55.9934444 L4,4.0065556 Z" id="path-1"></path>
        <filter x="-11.6%" y="-26.7%" width="123.3%" height="166.7%" filterUnits="objectBoundingBox" id="filter-2">
            <feOffset dx="0" dy="4" in="SourceAlpha" result="shadowOffsetOuter1"></feOffset>
            <feGaussianBlur stdDeviation="6" in="shadowOffsetOuter1" result="shadowBlurOuter1"></feGaussianBlur>
            <feColorMatrix values="0 0 0 0 0   0 0 0 0 0   0 0 0 0 0  0 0 0 0.2 0" type="matrix" in="shadowBlurOuter1"></feColorMatrix>
        </filter>
        <linearGradient x1="100%" y1="50%" x2="61.0874018%" y2="50%" id="linearGradient-3">
            <stop stop-color="#FBDA09" offset="0%"></stop>
            <stop stop-color="#FFBC00" offset="100%"></stop>
        </linearGradient>
        <path d="M20.2102133,10.6381055 C21.4369042,11.3617511 21.4376595,12.534584 20.2102133,13.2586963 L2.84530482,23.5028462 C1.61861391,24.2265128 0.624184442,23.6237903 0.624184442,22.1626039 L0.624184442,1.73453339 C0.624184442,0.27067134 1.61785859,-0.32983818 2.84530482,0.394253053" id="path-4"></path>
        <linearGradient x1="0%" y1="58.4755255%" x2="69.3064856%" y2="39.0830098%" id="linearGradient-6">
            <stop stop-color="#01E2FF" offset="0%"></stop>
            <stop stop-color="#01C4FF" offset="100%"></stop>
        </linearGradient>
        <linearGradient x1="20.2810876%" y1="20.1019903%" x2="83.820166%" y2="83.6214476%" id="linearGradient-7">
            <stop stop-color="#28D781" offset="0%"></stop>
            <stop stop-color="#02F076" offset="100%"></stop>
        </linearGradient>
        <linearGradient x1="74.4881466%" y1="17.4301299%" x2="10.1079427%" y2="91.1838038%" id="linearGradient-8">
            <stop stop-color="#F2414E" offset="0%"></stop>
            <stop stop-color="#E02554" offset="100%"></stop>
        </linearGradient>
    </defs>
    <g id="Hjemmeside" stroke="none" stroke-width="1" fill="none" fill-rule="evenodd">
        <g id="Full-page-2" transform="translate(-337.000000, -700.000000)">
            <g id="hero" transform="translate(97.000000, 221.000000)">
                <g id="title-+-subtitle" transform="translate(248.000000, 263.000000)">
                    <g id="play-store" transform="translate(0.000000, 224.000000)">
                        <g id="shadow" fill="black" fill-opacity="1">
                            <use filter="url(#filter-2)" xlink:href="#path-1"></use>
                        </g>
                        <rect id="Rectangle" fill="#000000" x="0" y="0" width="180" height="60" rx="2"></rect>
                        <path d="M66.609375,35.3388672 C66.1464821,35.9423858 65.5048869,36.3994125 64.6845703,36.7099609 C63.8642537,37.0205094 62.9326224,37.1757812 61.8896484,37.1757812 C60.8173775,37.1757812 59.8681682,36.9326196 59.0419922,36.4462891 C58.2158162,35.9599585 57.5786155,35.2641647 57.1303711,34.3588867 C56.6821267,33.4536088 56.4492188,32.397467 56.4316406,31.1904297 L56.4316406,30.1884766 C56.4316406,28.2548731 56.8945266,26.7446343 57.8203125,25.6577148 C58.7460984,24.5707953 60.0380776,24.0273438 61.6962891,24.0273438 C63.1201243,24.0273438 64.2509724,24.3789027 65.0888672,25.0820312 C65.926762,25.7851598 66.4306632,26.7988215 66.6005859,28.1230469 L64.4208984,28.1230469 C64.1748035,26.5820235 63.2812577,25.8115234 61.7402344,25.8115234 C60.7441356,25.8115234 59.986819,26.1704066 59.4682617,26.8881836 C58.9497044,27.6059606 58.6816407,28.6591727 58.6640625,30.0478516 L58.6640625,31.0322266 C58.6640625,32.415046 58.9555635,33.4887657 59.5385742,34.253418 C60.1215849,35.0180702 60.9316354,35.4003906 61.96875,35.4003906 C63.1054744,35.4003906 63.9140601,35.1425807 64.3945312,34.6269531 L64.3945312,32.1220703 L61.7578125,32.1220703 L61.7578125,30.4345703 L66.609375,30.4345703 L66.609375,35.3388672 Z M68.4462891,32.1572266 C68.4462891,31.2255813 68.6308575,30.3862342 69,29.6391602 C69.3691425,28.8920861 69.887692,28.3178731 70.5556641,27.9165039 C71.2236362,27.5151347 71.9912066,27.3144531 72.8583984,27.3144531 C74.141608,27.3144531 75.1831015,27.7275349 75.9829102,28.5537109 C76.7827188,29.3798869 77.2148434,30.4755791 77.2792969,31.8408203 L77.2880859,32.3417969 C77.2880859,33.2793016 77.107912,34.1171838 76.7475586,34.8554688 C76.3872052,35.5937537 75.8715854,36.165037 75.2006836,36.5693359 C74.5297818,36.9736348 73.7548872,37.1757812 72.8759766,37.1757812 C71.534173,37.1757812 70.4604532,36.7290084 69.6547852,35.8354492 C68.8491171,34.9418901 68.4462891,33.750984 68.4462891,32.2626953 L68.4462891,32.1572266 Z M70.5820312,32.3417969 C70.5820312,33.3203174 70.7841777,34.086423 71.1884766,34.6401367 C71.5927755,35.1938504 72.1552698,35.4707031 72.8759766,35.4707031 C73.5966833,35.4707031 74.1577128,35.1894559 74.559082,34.6269531 C74.9604512,34.0644503 75.1611328,33.2412164 75.1611328,32.1572266 C75.1611328,31.1962843 74.9545919,30.4345731 74.5415039,29.8720703 C74.1284159,29.3095675 73.5673864,29.0283203 72.8583984,29.0283203 C72.1611293,29.0283203 71.6074239,29.305173 71.1972656,29.8588867 C70.7871073,30.4126004 70.5820312,31.2402289 70.5820312,32.3417969 Z M78.6943359,32.1572266 C78.6943359,31.2255813 78.8789044,30.3862342 79.2480469,29.6391602 C79.6171893,28.8920861 80.1357388,28.3178731 80.8037109,27.9165039 C81.471683,27.5151347 82.2392535,27.3144531 83.1064453,27.3144531 C84.3896549,27.3144531 85.4311483,27.7275349 86.230957,28.5537109 C87.0307657,29.3798869 87.4628903,30.4755791 87.5273438,31.8408203 L87.5361328,32.3417969 C87.5361328,33.2793016 87.3559588,34.1171838 86.9956055,34.8554688 C86.6352521,35.5937537 86.1196323,36.165037 85.4487305,36.5693359 C84.7778287,36.9736348 84.0029341,37.1757812 83.1240234,37.1757812 C81.7822199,37.1757812 80.7085001,36.7290084 79.902832,35.8354492 C79.0971639,34.9418901 78.6943359,33.750984 78.6943359,32.2626953 L78.6943359,32.1572266 Z M80.8300781,32.3417969 C80.8300781,33.3203174 81.0322245,34.086423 81.4365234,34.6401367 C81.8408223,35.1938504 82.4033167,35.4707031 83.1240234,35.4707031 C83.8447302,35.4707031 84.4057597,35.1894559 84.8071289,34.6269531 C85.2084981,34.0644503 85.4091797,33.2412164 85.4091797,32.1572266 C85.4091797,31.1962843 85.2026388,30.4345731 84.7895508,29.8720703 C84.3764628,29.3095675 83.8154332,29.0283203 83.1064453,29.0283203 C82.4091762,29.0283203 81.8554708,29.305173 81.4453125,29.8588867 C81.0351542,30.4126004 80.8300781,31.2402289 80.8300781,32.3417969 Z M88.96875,32.1748047 C88.96875,30.6982348 89.3159145,29.5190474 90.0102539,28.637207 C90.7045933,27.7553667 91.6259708,27.3144531 92.7744141,27.3144531 C93.8584039,27.3144531 94.7109344,27.692379 95.3320312,28.4482422 L95.4287109,27.4902344 L97.3535156,27.4902344 L97.3535156,36.7099609 C97.3535156,37.9580141 96.9653359,38.9423792 96.1889648,39.6630859 C95.4125938,40.3837927 94.365241,40.7441406 93.046875,40.7441406 C92.3496059,40.7441406 91.6684604,40.5991225 91.003418,40.309082 C90.3383756,40.0190415 89.8330095,39.6396508 89.4873047,39.1708984 L90.4980469,37.8876953 C91.1543002,38.6669961 91.9628858,39.0566406 92.9238281,39.0566406 C93.632816,39.0566406 94.1923808,38.864748 94.6025391,38.480957 C95.0126974,38.097166 95.2177734,37.5332068 95.2177734,36.7890625 L95.2177734,36.1474609 C94.602536,36.8330112 93.7822317,37.1757812 92.7568359,37.1757812 C91.6435491,37.1757812 90.7338902,36.7334029 90.027832,35.8486328 C89.3217738,34.9638628 88.96875,33.7392656 88.96875,32.1748047 Z M91.0957031,32.359375 C91.0957031,33.3144579 91.2905254,34.0659152 91.6801758,34.6137695 C92.0698262,35.1616238 92.6103481,35.4355469 93.3017578,35.4355469 C94.1630902,35.4355469 94.8017557,35.0664099 95.2177734,34.328125 L95.2177734,30.1445312 C94.8134745,29.4238245 94.1806684,29.0634766 93.3193359,29.0634766 C92.6162074,29.0634766 92.0698262,29.3417941 91.6801758,29.8984375 C91.2905254,30.4550809 91.0957031,31.2753852 91.0957031,32.359375 Z M101.818359,37 L99.6826172,37 L99.6826172,23.5 L101.818359,23.5 L101.818359,37 Z M108.331055,37.1757812 C106.977532,37.1757812 105.880375,36.749516 105.039551,35.8969727 C104.198726,35.0444293 103.77832,33.9091868 103.77832,32.4912109 L103.77832,32.2275391 C103.77832,31.2783156 103.961424,30.4301795 104.327637,29.6831055 C104.693849,28.9360314 105.208005,28.3544943 105.870117,27.9384766 C106.53223,27.5224589 107.270504,27.3144531 108.084961,27.3144531 C109.379889,27.3144531 110.380368,27.7275349 111.086426,28.5537109 C111.792484,29.3798869 112.145508,30.5488206 112.145508,32.0605469 L112.145508,32.921875 L105.931641,32.921875 C105.996094,33.7070352 106.258298,34.3281227 106.718262,34.7851562 C107.178225,35.2421898 107.756832,35.4707031 108.454102,35.4707031 C109.432622,35.4707031 110.229489,35.0751993 110.844727,34.2841797 L111.996094,35.3828125 C111.615232,35.9511747 111.106937,36.3920883 110.471191,36.7055664 C109.835446,37.0190445 109.122074,37.1757812 108.331055,37.1757812 Z M108.076172,29.0283203 C107.490231,29.0283203 107.017092,29.2333964 106.656738,29.6435547 C106.296385,30.053713 106.066407,30.6249963 105.966797,31.3574219 L110.036133,31.3574219 L110.036133,31.1992188 C109.989258,30.4843714 109.79883,29.9438495 109.464844,29.5776367 C109.130858,29.211424 108.667972,29.0283203 108.076172,29.0283203 Z M120.714844,32.2451172 L120.714844,37 L118.491211,37 L118.491211,24.203125 L123.386719,24.203125 C124.816413,24.203125 125.951656,24.5751916 126.79248,25.3193359 C127.633305,26.0634803 128.053711,27.0478454 128.053711,28.2724609 C128.053711,29.5263735 127.642094,30.5019496 126.818848,31.1992188 C125.995601,31.8964879 124.842781,32.2451172 123.360352,32.2451172 L120.714844,32.2451172 Z M120.714844,30.4609375 L123.386719,30.4609375 C124.177738,30.4609375 124.781248,30.2749042 125.197266,29.902832 C125.613283,29.5307599 125.821289,28.9931676 125.821289,28.2900391 C125.821289,27.5986294 125.610354,27.0463888 125.188477,26.6333008 C124.766599,26.2202128 124.186527,26.0078126 123.448242,25.9960938 L120.714844,25.9960938 L120.714844,30.4609375 Z M132.061523,37 L129.925781,37 L129.925781,23.5 L132.061523,23.5 L132.061523,37 Z M140.068359,37 C139.974609,36.8183585 139.892578,36.522463 139.822266,36.1123047 C139.142575,36.8212926 138.310552,37.1757812 137.326172,37.1757812 C136.371089,37.1757812 135.5918,36.903323 134.988281,36.3583984 C134.384763,35.8134738 134.083008,35.1396525 134.083008,34.3369141 C134.083008,33.3232371 134.459469,32.5454129 135.212402,32.003418 C135.965336,31.4614231 137.041985,31.1904297 138.442383,31.1904297 L139.751953,31.1904297 L139.751953,30.5664062 C139.751953,30.0742163 139.614259,29.6801773 139.338867,29.3842773 C139.063475,29.0883774 138.644534,28.9404297 138.082031,28.9404297 C137.595701,28.9404297 137.197267,29.0620105 136.886719,29.3051758 C136.57617,29.5483411 136.420898,29.85742 136.420898,30.2324219 L134.285156,30.2324219 C134.285156,29.7109349 134.458006,29.2231468 134.803711,28.769043 C135.149416,28.3149391 135.619626,27.9589857 136.214355,27.7011719 C136.809085,27.4433581 137.472653,27.3144531 138.205078,27.3144531 C139.318365,27.3144531 140.206051,27.5942355 140.868164,28.1538086 C141.530277,28.7133817 141.870117,29.4999949 141.887695,30.5136719 L141.887695,34.8027344 C141.887695,35.6582074 142.007811,36.3408178 142.248047,36.8505859 L142.248047,37 L140.068359,37 Z M137.72168,35.4619141 C138.143557,35.4619141 138.540525,35.359376 138.912598,35.1542969 C139.28467,34.9492177 139.564452,34.6738299 139.751953,34.328125 L139.751953,32.5351562 L138.600586,32.5351562 C137.809566,32.5351562 137.214846,32.6728502 136.816406,32.9482422 C136.417967,33.2236342 136.21875,33.6132787 136.21875,34.1171875 C136.21875,34.5273458 136.354979,34.8540027 136.627441,35.097168 C136.899904,35.3403332 137.264646,35.4619141 137.72168,35.4619141 Z M147.451172,33.9414062 L149.384766,27.4902344 L151.661133,27.4902344 L147.881836,38.4414062 C147.301755,40.0410236 146.31739,40.8408203 144.928711,40.8408203 C144.618163,40.8408203 144.275393,40.7880865 143.900391,40.6826172 L143.900391,39.0302734 L144.304688,39.0566406 C144.843753,39.0566406 145.24951,38.9584971 145.521973,38.762207 C145.794435,38.565917 146.009765,38.2363304 146.167969,37.7734375 L146.475586,36.9560547 L143.135742,27.4902344 L145.438477,27.4902344 L147.451172,33.9414062 Z" id="Google-Play" fill="#FFFFFF"></path>
                        <g id="g-play" transform="translate(25.000000, 18.000000)">
                            <mask id="mask-5" fill="white">
                                <use xlink:href="#path-4"></use>
                            </mask>
                            <use id="yellow" fill="url(#linearGradient-3)" xlink:href="#path-4"></use>
                            <polygon id="blue" fill="url(#linearGradient-6)" mask="url(#mask-5)" points="0.624184442 0.192467731 12.0003662 11.986145 0.624184442 23.9060417"></polygon>
                            <polygon id="green" fill="url(#linearGradient-7)" mask="url(#mask-5)" points="-1.76721191 -2.29992676 12.0077515 12.0021973 15.9885379 7.76857368"></polygon>
                            <polygon id="red" fill="url(#linearGradient-8)" mask="url(#mask-5)" points="12.0109863 11.9938965 18.1150506 18.2567607 -0.397180007 24.7553285"></polygon>
                        </g>
                    </g>
                </g>
            </g>
        </g>
    </g>
</svg>