<?xml version="1.0" encoding="UTF-8"?>
<svg width="196px" height="84px" viewBox="0 0 196 84" version="1.1" xmlns="http://www.w3.org/2000/svg" xmlns:xlink="http://www.w3.org/1999/xlink">
    <!-- Generator: Sketch 49.3 (51167) - http://www.bohemiancoding.com/sketch -->
    <title>app store</title>
    <desc>Created with Sketch.</desc>
    <defs>
        <path d="M4,4.0065556 C4,1.79379604 5.786708,0 7.998442,0 L172.001558,0 C174.209837,0 176,1.79568082 176,4.0065556 L176,55.9934444 C176,58.206204 174.213292,60 172.001558,60 L7.998442,60 C5.79016346,60 4,58.2043192 4,55.9934444 L4,4.0065556 Z" id="path-1"></path>
        <filter x="-11.6%" y="-26.7%" width="123.3%" height="166.7%" filterUnits="objectBoundingBox" id="filter-2">
            <feOffset dx="0" dy="4" in="SourceAlpha" result="shadowOffsetOuter1"></feOffset>
            <feGaussianBlur stdDeviation="6" in="shadowOffsetOuter1" result="shadowBlurOuter1"></feGaussianBlur>
            <feColorMatrix values="0 0 0 0 0   0 0 0 0 0   0 0 0 0 0  0 0 0 0.2 0" type="matrix" in="shadowBlurOuter1"></feColorMatrix>
        </filter>
    </defs>
    <g id="Hjemmeside" stroke="none" stroke-width="1" fill="none" fill-rule="evenodd">
        <g id="Full-page-2" transform="translate(-811.000000, -4363.000000)">
            <g id="download-the-app" transform="translate(428.000000, 4225.000000)">
                <g id="app-store" transform="translate(391.000000, 146.000000)">
                    <g id="shadow" fill="black" fill-opacity="1">
                        <use filter="url(#filter-2)" xlink:href="#path-1"></use>
                    </g>
                    <rect id="Rectangle" fill="#FFFFFF" x="0" y="0" width="180" height="60" rx="2"></rect>
                    <path d="M70.7470703,37 L69.6748047,33.7568359 L65.0078125,33.7568359 L63.9179688,37 L61.6240234,37 L66.1240234,24.3173828 L68.6728516,24.3173828 L73.1816406,37 L70.7470703,37 Z M67.2753906,26.734375 L65.5351562,31.9638672 L69.1474609,31.9638672 L67.4248047,26.734375 L67.2753906,26.734375 Z M80.3710938,27.2265625 C82.8056641,27.2265625 84.3349609,29.1074219 84.3349609,32.1923828 C84.3349609,35.2597656 82.8232422,37.1582031 80.3974609,37.1582031 C79.0175781,37.1582031 77.9541016,36.5605469 77.4619141,35.5410156 L77.3125,35.5410156 L77.3125,40.1992188 L75.1328125,40.1992188 L75.1328125,27.3847656 L77.2333984,27.3847656 L77.2333984,28.9755859 L77.3828125,28.9755859 C77.9365234,27.8857422 79.0527344,27.2265625 80.3710938,27.2265625 Z M79.6855469,35.3037109 C81.1972656,35.3037109 82.09375,34.1347656 82.09375,32.1923828 C82.09375,30.25 81.1884766,29.0810547 79.6943359,29.0810547 C78.2089844,29.0810547 77.2773438,30.2763672 77.2685547,32.1923828 C77.2773438,34.1171875 78.2001953,35.3037109 79.6855469,35.3037109 Z M91.7617188,27.2265625 C94.1962891,27.2265625 95.7255859,29.1074219 95.7255859,32.1923828 C95.7255859,35.2597656 94.2138672,37.1582031 91.7880859,37.1582031 C90.4082031,37.1582031 89.3447266,36.5605469 88.8525391,35.5410156 L88.703125,35.5410156 L88.703125,40.1992188 L86.5234375,40.1992188 L86.5234375,27.3847656 L88.6240234,27.3847656 L88.6240234,28.9755859 L88.7734375,28.9755859 C89.3271484,27.8857422 90.4433594,27.2265625 91.7617188,27.2265625 Z M91.0761719,35.3037109 C92.5878906,35.3037109 93.484375,34.1347656 93.484375,32.1923828 C93.484375,30.25 92.5791016,29.0810547 91.0849609,29.0810547 C89.5996094,29.0810547 88.6679688,30.2763672 88.6591797,32.1923828 C88.6679688,34.1171875 89.5908203,35.3037109 91.0761719,35.3037109 Z M102.361328,33.5546875 L104.576172,33.5546875 C104.716797,34.6884766 105.841797,35.4179688 107.450195,35.4179688 C108.944336,35.4179688 110.025391,34.6533203 110.025391,33.5898438 C110.025391,32.6757812 109.331055,32.1396484 107.705078,31.7617188 L106.061523,31.3837891 C103.758789,30.8652344 102.677734,29.7226562 102.677734,27.8330078 C102.677734,25.5302734 104.558594,24.0009766 107.397461,24.0009766 C110.060547,24.0009766 111.985352,25.5302734 112.09082,27.7099609 L109.919922,27.7099609 C109.761719,26.59375 108.777344,25.890625 107.388672,25.890625 C105.929688,25.890625 104.962891,26.59375 104.962891,27.6748047 C104.962891,28.5273438 105.604492,29.0283203 107.177734,29.3886719 L108.636719,29.7226562 C111.211914,30.3027344 112.292969,31.375 112.292969,33.3085938 C112.292969,35.7783203 110.385742,37.3164062 107.30957,37.3164062 C104.400391,37.3164062 102.475586,35.8574219 102.361328,33.5546875 Z M115.307617,25.0292969 L117.478516,25.0292969 L117.478516,27.4462891 L119.535156,27.4462891 L119.535156,29.1865234 L117.478516,29.1865234 L117.478516,33.90625 C117.478516,34.8554688 117.882812,35.2773438 118.796875,35.2773438 C119.104492,35.2773438 119.271484,35.2597656 119.535156,35.2333984 L119.535156,36.9384766 C119.21875,37 118.814453,37.0439453 118.392578,37.0439453 C116.186523,37.0439453 115.307617,36.296875 115.307617,34.4335938 L115.307617,29.1865234 L113.787109,29.1865234 L113.787109,27.4462891 L115.307617,27.4462891 L115.307617,25.0292969 Z M125.863281,37.1933594 C122.980469,37.1933594 121.240234,35.3125 121.240234,32.1923828 C121.240234,29.0898438 123.006836,27.1914062 125.863281,27.1914062 C128.728516,27.1914062 130.486328,29.0810547 130.486328,32.1923828 C130.486328,35.3125 128.737305,37.1933594 125.863281,37.1933594 Z M125.863281,35.3652344 C127.383789,35.3652344 128.245117,34.2050781 128.245117,32.1923828 C128.245117,30.1884766 127.375,29.0195312 125.863281,29.0195312 C124.342773,29.0195312 123.472656,30.1884766 123.472656,32.1923828 C123.472656,34.2050781 124.342773,35.3652344 125.863281,35.3652344 Z M132.683594,37 L132.683594,27.3847656 L134.78418,27.3847656 L134.78418,28.8789062 L134.933594,28.8789062 C135.197266,27.9296875 136.234375,27.2265625 137.473633,27.2265625 C137.790039,27.2265625 138.176758,27.2617188 138.378906,27.3232422 L138.378906,29.3447266 C138.211914,29.2832031 137.631836,29.2216797 137.262695,29.2216797 C135.847656,29.2216797 134.863281,30.1005859 134.863281,31.4453125 L134.863281,37 L132.683594,37 Z M144.197266,28.9228516 C142.896484,28.9228516 141.982422,29.8544922 141.885742,31.2607422 L146.412109,31.2607422 C146.368164,29.8369141 145.506836,28.9228516 144.197266,28.9228516 Z M146.429688,34.3544922 L148.495117,34.3544922 C148.082031,36.1035156 146.491211,37.1933594 144.223633,37.1933594 C141.393555,37.1933594 139.688477,35.3212891 139.688477,32.2275391 C139.688477,29.1337891 141.419922,27.1914062 144.206055,27.1914062 C146.948242,27.1914062 148.591797,29.0107422 148.591797,32.0429688 L148.591797,32.7460938 L141.876953,32.7460938 L141.876953,32.8603516 C141.929688,34.4599609 142.852539,35.4619141 144.285156,35.4619141 C145.366211,35.4619141 146.113281,35.0664062 146.429688,34.3544922 Z" id="App-Store" fill="#393C41"></path>
                    <path d="M45.1093073,20.834681 C45.9697353,19.8195475 46.5471926,18.40897 46.3892556,17 C45.1545497,17.0474211 43.6533251,17.8069628 42.7698647,18.8180776 C41.976889,19.719079 41.2818015,21.1537689 41.4660614,22.5313927 C42.8447203,22.63588 44.2529923,21.8482071 45.1093073,20.834681 M51.5,34.6044892 C51.4695642,34.6864715 50.9825916,36.3269209 49.7972411,38.0155951 C48.7764084,39.47922 47.7119784,40.9380223 46.0371875,40.9669573 C44.3953002,40.9983034 43.8663756,40.0153198 41.9859375,40.0153198 C40.106322,40.0153198 39.5189936,40.9380223 37.9626555,40.9983034 C36.3454459,41.060192 35.1189659,39.4173314 34.0849717,37.9609403 C31.9733862,34.981447 30.3644024,29.5392703 32.5253433,25.8693576 C33.6029347,24.0448499 35.5220344,22.8922755 37.6081197,22.8609294 C39.1973614,22.8352094 40.6928279,23.9033903 41.6626601,23.9033903 C42.6333149,23.9033903 44.4504137,22.6117675 46.3645779,22.801452 C47.1624891,22.8368169 49.4114469,23.1173249 50.8575581,25.1821532 C50.7382827,25.256098 48.1734507,26.7124891 48.2014188,29.7498522 C48.2334997,33.381185 51.4621609,34.5900218 51.5,34.6044892" id="apple_logo" fill="#191C20"></path>
                </g>
            </g>
        </g>
    </g>
</svg>