<?xml version="1.0" encoding="UTF-8"?>
<svg width="57px" height="57px" viewBox="0 0 57 57" version="1.1" xmlns="http://www.w3.org/2000/svg" xmlns:xlink="http://www.w3.org/1999/xlink">
    <!-- Generator: Sketch 48.2 (47327) - http://www.bohemiancoding.com/sketch -->
    <title>Mobile</title>
    <desc>Created with Sketch.</desc>
    <defs></defs>
    <g id="Hjemmeside" stroke="none" stroke-width="1" fill="none" fill-rule="evenodd">
        <g id="Mobile">
            <g id="Logo">
                <path d="M19.259192,51.1427454 C14.0260686,51.1427454 11.017379,51.1427454 8.00868952,48.1340559 C4.99999998,45.1253664 5,42.1166769 5,36.8835534 L5,19.259192 C5,14.0260686 4.99999998,11.017379 8.00868952,8.00868952 C11.017379,5 14.0260686,5 19.259192,5 L36.8835534,5 C42.1166769,5 45.1253664,5 48.1340559,8.00868952 C51.1427454,11.017379 51.1427454,14.0260686 51.1427454,19.259192 L51.1427454,36.8835534 C51.1427454,42.1166769 51.1427454,45.1253664 48.1340559,48.1340559 C45.1253664,51.1427454 42.1166769,51.1427454 36.8835534,51.1427454 L19.259192,51.1427454 Z" id="mask-copy" fill="#003F63"></path>
                <path d="M25.5490363,33.4077002 L25.5490363,44.479476 L17.6822483,44.479476 L17.6822483,11.8468737 L30.7039117,11.8468737 C33.1991827,11.8468737 35.406792,12.3063254 37.3268059,13.2252426 C39.2468198,14.1441597 40.7335009,15.4515426 41.7868937,17.1474303 C42.8402866,18.8433181 43.3669751,20.7670386 43.3669751,22.9186495 C43.3669751,26.1012406 42.2276843,28.6450341 39.9490686,30.5501063 C37.6704529,32.4551784 34.5439402,33.4077002 30.5694367,33.4077002 L25.5490363,33.4077002 Z M25.5490363,27.3339123 L30.7039117,27.3339123 C32.2279694,27.3339123 33.3896725,26.9529036 34.1890557,26.1908747 C34.9884389,25.4288459 35.3881245,24.3530565 35.3881245,22.9634745 C35.3881245,21.4394168 34.9772328,20.221683 34.1554369,19.3102367 C33.3336411,18.3987904 32.2130272,17.9356034 30.7935617,17.9206616 L25.5490363,17.9206616 L25.5490363,27.3339123 Z" id="P" fill="#FFFFFF"></path>
            </g>
        </g>
    </g>
</svg>