<?xml version="1.0" encoding="UTF-8"?>
<svg width="162px" height="52px" viewBox="0 0 162 52" version="1.1" xmlns="http://www.w3.org/2000/svg" xmlns:xlink="http://www.w3.org/1999/xlink">
    <title>MP_RGB_NoTM_Logo+Type Horisontal Blue</title>
    <defs>
        <linearGradient x1="48.7422863%" y1="76.002%" x2="52.4043643%" y2="-0.583%" id="linearGradient-1">
            <stop stop-color="#504678" offset="0%"></stop>
            <stop stop-color="#504678" stop-opacity="0.616" offset="30.2%"></stop>
            <stop stop-color="#504678" stop-opacity="0.283" offset="60.8%"></stop>
            <stop stop-color="#504678" stop-opacity="0.076" offset="85.2%"></stop>
            <stop stop-color="#504678" stop-opacity="0" offset="100%"></stop>
        </linearGradient>
        <linearGradient x1="48.7421442%" y1="76.002%" x2="52.404636%" y2="-0.583%" id="linearGradient-2">
            <stop stop-color="#504678" offset="0%"></stop>
            <stop stop-color="#504678" stop-opacity="0.616" offset="30.2%"></stop>
            <stop stop-color="#504678" stop-opacity="0.283" offset="60.8%"></stop>
            <stop stop-color="#504678" stop-opacity="0.076" offset="85.2%"></stop>
            <stop stop-color="#504678" stop-opacity="0" offset="100%"></stop>
        </linearGradient>
        <linearGradient x1="13.702%" y1="66.7152092%" x2="57.382%" y2="41.0547393%" id="linearGradient-3">
            <stop stop-color="#504678" offset="0%"></stop>
            <stop stop-color="#504678" stop-opacity="0.872" offset="17.9%"></stop>
            <stop stop-color="#504678" stop-opacity="0.536" offset="52.6%"></stop>
            <stop stop-color="#504678" stop-opacity="0" offset="100%"></stop>
        </linearGradient>
        <linearGradient x1="47.724%" y1="34.6268356%" x2="45.261%" y2="17.6507868%" id="linearGradient-4">
            <stop stop-color="#504678" offset="0%"></stop>
            <stop stop-color="#504678" stop-opacity="0.332" offset="64.3%"></stop>
            <stop stop-color="#504678" stop-opacity="0" offset="100%"></stop>
        </linearGradient>
    </defs>
    <g id="Hjemmeside" stroke="none" stroke-width="1" fill="none" fill-rule="evenodd">
        <g id="Full-page-2" transform="translate(-536.000000, -1073.000000)" fill-rule="nonzero">
            <g id="MP_RGB_NoTM_Logo+Type-Horisontal-Blue" transform="translate(536.000000, 1073.000000)">
                <path d="M19.6458944,52 C17.8604776,52 16.2506575,50.9290756 15.5665945,49.2860036 L0.336754206,12.6560988 C-0.595009337,10.4148287 0.473115723,7.84535354 2.72258847,6.91675032 L18.6743082,0.334555155 C19.7544805,-0.111421764 20.9682519,-0.111522043 22.0484985,0.334276388 C23.128745,0.780074823 23.9869386,1.63523803 24.43421,2.71156367 L39.6640503,39.3429762 C40.5943012,41.5836216 39.5264355,44.1514604 37.278216,45.0800631 L21.3264963,51.6652738 C20.7938181,51.8858007 20.2227304,52 19.6458944,52 Z M20.3617203,2.36326747 C20.0943956,2.36326747 19.8297894,2.41673789 19.5830893,2.51932226 L3.63061294,9.10151742 C3.13196189,9.30730258 2.73580678,9.70204544 2.52932477,10.1988796 C2.32284276,10.6957138 2.32295374,11.2539268 2.52963328,11.7506795 L17.7594735,48.3828459 C18.1905774,49.4164282 19.3799742,49.907423 20.4184718,49.4805067 L36.3701915,42.8937882 L36.3701915,42.8937882 C36.8688425,42.688003 37.2649977,42.2932602 37.4714797,41.796426 C37.6779617,41.2995918 37.6778507,40.7413788 37.4711712,40.2446261 L22.2413309,3.61622914 C21.9260811,2.85886564 21.1846707,2.36463625 20.3617203,2.36326747 Z" id="Shape" fill="#5A78FF"></path>
                <polygon id="Rectangle" fill="url(#linearGradient-1)" opacity="0.7" style="mix-blend-mode: multiply;" transform="translate(27.244227, 12.829537) rotate(-22.500000) translate(-27.244227, -12.829537) " points="26.0628459 4.98309265 28.4266009 4.98294313 28.4256083 20.6759813 26.0618534 20.6761308"></polygon>
                <polygon id="Rectangle" fill="url(#linearGradient-2)" opacity="0.7" style="mix-blend-mode: multiply;" transform="translate(33.998554, 29.142753) rotate(157.500000) translate(-33.998554, -29.142753) " points="32.8172386 20.2608575 35.1809935 20.2607079 35.17987 38.0246483 32.816115 38.0247979"></polygon>
                <path d="M33.0770035,26.5357123 C28.5725955,28.3833083 24.8115754,30.9300346 22.3490561,34 L16,18.8319762 C18.8960799,15.503669 22.5823668,12.9388255 26.7279474,11.3676886 C31.2323554,9.52009263 35.7830851,8.62585619 39.6494496,9.14687825 L46,24.314163 C41.5728038,23.9843515 37.1321281,24.7477333 33.0770035,26.5357123 Z" id="Path" fill="#5A78FF"></path>
                <g id="Group" opacity="0.4" style="mix-blend-mode: multiply;" transform="translate(16.000000, 9.000000)">
                    <path d="M17.7856829,18.1418824 C13.2271707,20.0536471 9.42097561,22.6888235 6.92887805,25.8654118 L0.503560976,10.1705882 C3.4344268,6.72668576 7.16499117,4.0727628 11.3603659,2.44705882 C15.918878,0.535294118 20.5242683,-0.39 24.4370732,0.149117647 L30.8639024,15.8431765 C26.3835294,15.5019103 21.8895151,16.2918051 17.7856829,18.1418824 Z" id="Path" fill="url(#linearGradient-3)" opacity="0.9"></path>
                    <path d="M17.7856829,18.1418824 C13.2271707,20.0536471 9.42097561,22.6888235 6.92887805,25.8654118 L0.503560976,10.1705882 C3.4344268,6.72668576 7.16499117,4.0727628 11.3603659,2.44705882 C15.918878,0.535294118 20.5242683,-0.39 24.4370732,0.149117647 L30.8639024,15.8431765 C26.3835294,15.5019103 21.8895151,16.2918051 17.7856829,18.1418824 Z" id="Path" fill="url(#linearGradient-4)" opacity="0.7"></path>
                </g>
                <path d="M35.9475218,31.7286671 C31.0149166,31.7286671 26.4995345,32.6838277 23,34.6335371 L23,18.9146685 C27.0093199,16.8871293 31.4582658,15.8889762 35.9475218,16.0097986 C40.880127,16.0097986 45.4839422,16.9263286 48.8942877,18.9184558 L48.8942877,34.6373244 C44.8857031,32.6081173 40.4368926,31.6086349 35.9475218,31.7286671 Z M61.1456818,31.7430589 L65.1365116,19.1010044 C65.1783842,18.9258902 65.3277856,18.7975566 65.5068727,18.78287 L67.509846,18.78287 C67.6893986,18.8081108 67.8404842,18.9304036 67.9028823,19.1010044 L71.0093805,27.0770879 C71.0698476,27.2361551 71.2285738,27.2513044 71.2814825,27.0770879 L74.3653056,19.1010044 C74.4277036,18.9304036 74.5787893,18.8081108 74.7583418,18.78287 L76.7613151,18.78287 C76.9404021,18.7975566 77.0898035,18.9258902 77.1316762,19.1010044 L81.0771557,31.7430589 C81.123085,31.8403861 81.1140278,31.9548285 81.0533627,32.043683 C80.9926983,32.1325374 80.8895391,32.1824563 80.7823785,32.1748127 L78.4014857,32.1748127 C78.2326819,32.1825051 78.0828013,32.067456 78.0462414,31.9021261 L75.5141808,23.6912291 C75.4763889,23.5321619 75.2949875,23.5321619 75.2420788,23.6912291 L72.2187228,31.8415291 C72.1672524,32.0377485 71.9903454,32.1746017 71.7878946,32.1748127 L70.3895925,32.1748127 C70.1703992,32.1748127 70.0570234,32.0536187 69.9738811,31.8415291 L66.890058,23.6912291 C66.8295909,23.5321619 66.6708647,23.5321619 66.6330728,23.6912291 L64.0405451,31.9021261 C64.0002868,32.0715843 63.8435819,32.1869618 63.670184,32.1748127 L61.402667,32.1748127 C61.3004661,32.1732491 61.2063677,32.11874 61.1540063,32.0307691 C61.1016448,31.9427981 61.0984947,31.8339226 61.1456818,31.7430589 Z M81.8329947,27.198282 C81.7900048,25.044599 83.0514706,23.0789026 85.024741,22.2246998 C86.9980113,21.3704971 89.2908451,21.7975838 90.8260425,23.3053096 C92.3612399,24.8130353 92.8336393,27.1016993 92.0213013,29.0960602 C91.2089641,31.090421 89.2733633,32.3940461 87.1238676,32.394477 C85.7249956,32.4422662 84.3676493,31.9137148 83.3679767,30.9319308 C82.3683041,29.9501468 81.8135749,28.6008387 81.8329947,27.198282 Z M89.6937201,27.198282 C89.598947,25.7818775 88.3902388,24.7021316 86.9753127,24.769913 C85.5603867,24.8376944 84.4599607,26.0280584 84.5004351,27.447064 C84.5409095,28.8660696 85.7073883,29.9914966 87.1238676,29.9781705 C88.5949547,29.9166833 89.7382761,28.6725988 89.6786033,27.198282 L89.6937201,27.198282 Z M97.0707086,31.3567529 C96.8741905,31.1976857 96.7003475,31.2582827 96.7003475,31.5309693 L96.7003475,31.7885067 C96.700513,31.9877176 96.5437218,32.1515325 96.3451032,32.1596635 L94.500856,32.1596635 C94.2996086,32.151898 94.1382438,31.9901868 94.1304949,31.7885067 L94.1304949,19.1464521 C94.1382438,18.944772 94.2996086,18.7830608 94.500856,18.7752953 L96.4433622,18.7752953 C96.6419808,18.7834263 96.7987721,18.9472412 96.7986066,19.1464521 L96.7986066,22.7519752 C96.7986066,23.0095125 96.9724495,23.0852588 97.2521099,22.8883185 C97.9960422,22.3298452 98.900012,22.0269892 99.8295209,22.0248109 C102.520308,22.0248109 104.583748,24.2971993 104.583748,27.2210059 C104.645141,28.5569815 104.166558,29.8613551 103.256191,30.8392519 C102.345823,31.8171487 101.08054,32.3859975 99.7463786,32.4172008 C98.7545002,32.4065505 97.8015512,32.0288684 97.0707086,31.3567529 Z M101.908078,27.2210059 C101.982468,26.2454362 101.505245,25.3103264 100.672412,24.7997385 C99.8395796,24.2891505 98.7915212,24.2891505 97.9586886,24.7997385 C97.1258561,25.3103264 96.648633,26.2454362 96.7230227,27.2210059 C96.6965207,27.9278995 96.954645,28.6158038 97.4393577,29.130048 C97.9240704,29.6442921 98.5946909,29.9417163 99.3004336,29.9554467 C100.012159,29.9396302 100.688062,29.6394293 101.177786,29.1216254 C101.66751,28.6038214 101.930437,27.9113596 101.908078,27.198282 L101.908078,27.2210059 Z M106.208802,19.6994 C106.208802,18.8627297 106.885604,18.1844743 107.72048,18.1844743 C108.555356,18.1844743 109.232158,18.8627297 109.232158,19.6994 C109.232158,20.5360703 108.555356,21.2143256 107.72048,21.2143256 C106.885604,21.2143256 106.208802,20.5360703 106.208802,19.6994 Z M106.344853,31.8188052 L106.344853,22.653505 C106.344687,22.4542941 106.501479,22.2904792 106.700097,22.2823482 L108.642603,22.2823482 C108.744859,22.2782507 108.844545,22.3150702 108.919689,22.3846921 C108.994832,22.4543139 109.039266,22.551023 109.043198,22.653505 L109.043198,31.7885067 C109.035449,31.9901868 108.874084,32.151898 108.672837,32.1596635 L106.700097,32.1596635 C106.501479,32.1515325 106.344687,31.9877176 106.344853,31.7885067 L106.344853,31.8188052 Z M111.204897,28.8192524 L111.204897,19.1464521 C111.204732,18.9472412 111.361523,18.7834263 111.560142,18.7752953 L113.502648,18.7752953 C113.703895,18.7830608 113.86526,18.944772 113.873009,19.1464521 L113.873009,28.8798494 C113.873009,29.5085436 114.145111,29.9251481 114.832925,29.9251481 C114.93115,29.9251481 115.025353,29.9642521 115.094809,30.0338575 C115.164266,30.1034628 115.203286,30.197868 115.203286,30.2963049 L115.203286,31.9097007 C115.195172,32.1087458 115.031709,32.2658743 114.832925,32.2657084 C112.247955,32.2657084 111.204897,31.4173499 111.204897,28.8192524 Z M115.928891,27.258879 C115.935642,25.4295189 116.91574,23.7427296 118.499992,22.8339085 C120.084243,21.9250874 122.031962,21.932306 123.609463,22.8528451 C125.186963,23.7733842 126.154585,25.467392 126.147869,27.2967521 C126.147869,27.6527597 126.049575,27.9481702 125.694331,27.9481702 L118.93713,27.9481702 C118.763287,27.9481702 118.70282,28.0466403 118.717937,28.2057075 C118.885827,29.3922278 119.944311,30.2441494 121.136622,30.152387 C121.854093,30.1630472 122.538795,29.8519079 123.003544,29.3040286 C123.14772,29.1010356 123.38229,28.982082 123.63089,28.9858942 L125.437346,28.9858942 C125.754798,28.9858942 125.890849,29.2055585 125.769915,29.5161182 C124.71026,31.6811195 122.301906,32.8291471 119.95728,32.2869172 C117.612655,31.7446873 115.949832,29.655139 115.944008,27.2437297 L115.928891,27.258879 Z M123.101803,26.3499236 C123.237854,26.3499236 123.298321,26.2893266 123.275646,26.1302594 C123.069691,25.043066 122.112198,24.2626318 121.008129,24.2820501 C119.928314,24.2810132 118.98953,25.024246 118.740612,26.077237 C118.70282,26.2135803 118.740612,26.3499236 118.899338,26.3499236 L123.101803,26.3499236 Z M127.780446,31.7885067 L127.780446,19.1464521 C127.780281,18.9472412 127.937072,18.7834263 128.135691,18.7752953 L134.326012,18.7752953 C137.15285,18.7752953 139.080239,20.4265643 139.080239,23.2064529 C139.080239,25.9863414 136.895865,27.6982074 134.189961,27.6982074 L130.90962,27.6982074 C130.809837,27.6877938 130.710847,27.724144 130.641401,27.7967006 C130.571956,27.8692571 130.539838,27.9698873 130.554376,28.0693642 L130.554376,31.7885067 C130.546627,31.9901868 130.385262,32.151898 130.184014,32.1596635 L128.143249,32.1596635 C127.941662,32.1555398 127.780446,31.9905689 127.780446,31.7885067 Z M134.189961,25.4106697 C135.361332,25.3735631 136.283078,24.3956997 136.253401,23.2216021 C136.270234,22.6654742 136.057705,22.1269603 135.665841,21.7328216 C135.273978,21.3386829 134.737396,21.1237367 134.182403,21.1385794 L130.879386,21.1385794 C130.645076,21.1385794 130.546817,21.2597734 130.546817,21.4945869 L130.546817,25.0773861 C130.546817,25.3121995 130.645076,25.4333936 130.879386,25.4333936 L134.189961,25.4106697 Z M140.032596,27.198282 C139.981633,25.8586703 140.468863,24.5545303 141.385195,23.5778568 C142.301527,22.6011833 143.570416,22.0335637 144.907758,22.002087 C145.872856,22.0073601 146.802824,22.3656012 147.522961,23.0095125 C147.696804,23.1685797 147.893322,23.1458558 147.893322,22.9110424 L147.893322,22.653505 C147.893322,22.4568875 148.05237,22.2974975 148.248566,22.2974975 L150.092813,22.2974975 C150.294061,22.3052629 150.455425,22.4669741 150.463174,22.6686543 L150.463174,29.1676853 C150.463174,29.6600361 150.637017,29.8797004 150.977145,29.9251481 C151.153564,29.9286867 151.297986,30.0668402 151.309714,30.2432825 L151.309714,31.9551485 C151.309714,32.139216 151.160817,32.2884322 150.977145,32.2884322 C149.677102,32.2884322 148.913704,31.9172754 148.482876,31.1673872 C148.361942,30.9704468 148.225891,30.9325737 148.029373,31.129514 C147.199112,31.9860355 146.053873,32.4626453 144.862407,32.4474993 C143.52204,32.408535 142.253965,31.8296248 141.344969,30.8416954 C140.435975,29.8537661 139.96285,28.5402748 140.032596,27.198282 L140.032596,27.198282 Z M147.893322,27.198282 C147.967608,26.2254874 147.491803,25.2929861 146.661352,24.7838155 C145.8309,24.2746448 144.785805,24.2746448 143.955353,24.7838155 C143.124901,25.2929861 142.649097,26.2254874 142.723383,27.198282 C142.649097,28.1710766 143.124901,29.1035778 143.955353,29.6127484 C144.785805,30.1219191 145.8309,30.1219191 146.661352,29.6127484 C147.491803,29.1035778 147.967608,28.1710766 147.893322,27.198282 Z M152.224279,35.6288432 L152.224279,34.0154474 C152.232393,33.8164024 152.395856,33.6592738 152.59464,33.6594399 C153.859217,33.7543291 155.025474,32.9730702 155.421478,31.7657828 C155.487872,31.5123919 155.461042,31.2435178 155.345894,31.00832 L151.732984,22.8125722 C151.670545,22.7011317 151.672505,22.5647007 151.738119,22.4551079 C151.803734,22.3455149 151.922934,22.2795789 152.050436,22.2822643 L153.992942,22.2822643 C154.18946,22.2822643 154.310395,22.4414154 154.385979,22.6383558 L156.653496,27.8799985 C156.812222,28.2966031 157.069207,28.2738792 157.24305,27.8799985 L159.404749,22.6232065 C159.480333,22.4262662 159.578592,22.3050721 159.775111,22.3050721 L161.642033,22.3050721 C161.758405,22.2989476 161.869804,22.3529536 161.937247,22.4481906 C162.00469,22.5434276 162.018785,22.6666363 161.974602,22.7746991 L158.255874,31.5915664 C156.902922,34.8032087 155.466828,36 152.59464,36 C152.393393,35.9922346 152.232028,35.8305234 152.224279,35.6288432 Z" id="Shape" fill="#5A78FF"></path>
            </g>
        </g>
    </g>
</svg>